<svg xmlns="http://www.w3.org/2000/svg" version="1.1" xmlns:xlink="http://www.w3.org/1999/xlink" width="512" height="512"><svg version="1.1" xmlns="http://www.w3.org/2000/svg" xmlns:xlink="http://www.w3.org/1999/xlink" x="0px" y="0px" viewBox="0 0 512 512" style="enable-background:new 0 0 512 512;" xml:space="preserve">
<style type="text/css">
	.st0{fill:#71BCFF;}
	.st1{fill:#E49696;}
	.st2{fill:#EFC971;}
	.st3{fill:#77D284;}
	.st4{fill:#7F78BB;}
	.st5{fill:#518FF4;}
	.st6{fill:#EAA9B9;}
	.st7{fill:#F5DE92;}
	.st8{fill:#96EBE4;}
	.st9{fill:#E6AFC1;}
	.st10{fill:#5596C6;}
	.st11{fill:#74B1F6;}
	.st12{fill:#F5E5BD;}
	.st13{fill:none;stroke:#5E8783;stroke-width:8;stroke-linecap:round;stroke-miterlimit:10;}
	.st14{fill:#679795;}
	.st15{fill:#74AAAA;}
	.st16{fill:#7FBDBF;}
	.st17{fill:#D3F8F5;}
	.st18{fill:#7BB5B2;}
	.st19{fill:#B7F1F1;}
	.st20{fill:#A8DBD9;}
	.st21{fill:none;stroke:#748BA4;stroke-width:8;stroke-linecap:round;stroke-miterlimit:10;}
	.st22{fill:#748BA4;}
	.st23{fill:#82A0C8;}
	.st24{fill:#7C96B6;}
	.st25{fill:#8DAADE;}
	.st26{fill:#A0BDE5;}
	.st27{fill:none;stroke:#99536E;stroke-width:8;stroke-linecap:round;stroke-miterlimit:10;}
	.st28{fill:#99536E;}
	.st29{fill:#A35B7B;}
	.st30{fill:#E393AC;}
	.st31{fill:#E06E8A;}
	.st32{fill:#B45B77;}
	.st33{fill:#EEC8D7;}
	.st34{fill:#E8B9B9;}
	.st35{fill:#DA4545;}
	.st36{fill:#A63F3F;}
	.st37{fill:#DB5757;}
	.st38{fill:#ECF6FF;}
	.st39{fill:#DB50B1;}
	.st40{fill:#B24798;}
	.st41{fill:#E093D2;}
	.st42{fill:#A3CCF8;}
	.st43{fill:#CBE7FA;}
	.st44{fill:#AD3C3C;}
	.st45{fill:#DD88A0;}
	.st46{fill:#C47E94;}
	.st47{fill:#7673AB;}
	.st48{fill:#D6B168;}
	.st49{fill:#75ACAC;}
	.st50{fill:#FFFFFF;}
	.st51{fill:#E3B6C5;}
	.st52{fill:#DE6F6F;}
	.st53{fill:none;}
	.st54{fill:#90BFEA;}
	.st55{fill:#DB6E6E;}
	.st56{fill:#B13E3E;}
	.st57{fill:#C66666;}
	.st58{fill:#CF98A8;}
	.st59{fill:#F1D4DD;}
	.st60{fill:#B8899A;}
	.st61{fill:#7370AA;}
	.st62{fill:#8A87CE;}
	.st63{fill:#DA6464;}
	.st64{fill:#589960;}
	.st65{fill:#67B575;}
	.st66{fill:#C78321;}
	.st67{fill:#D7C431;}
	.st68{fill:#E59B25;}
	.st69{fill:#F6E637;}
	.st70{fill:#D3AE68;}
	.st71{fill:#1C314E;}
	.st72{fill:#FFFDFC;}
	.st73{fill:#DC8282;}
	.st74{fill:#DBDBDB;}
	.st75{fill:#CC6785;}
	.st76{fill:#D29FAE;}
	.st77{fill:#C4C4C4;}
	.st78{fill:#B13D3D;}
	.st79{fill:#9D3A3A;}
	.st80{fill:#F3DDB1;}
	.st81{fill:#D6B269;}
	.st82{fill:#C6819A;}
	.st83{fill:#B77C94;}
	.st84{fill:#DACFB5;}
	.st85{fill:#E9DCBC;}
	.st86{fill:#7471AB;}
	.st87{fill:#DE9BBA;}
	.st88{fill:#D189A6;}
	.st89{fill:#C2E1FD;}
	.st90{fill:#BC6383;}
	.st91{fill:#9B99D9;}
	.st92{fill:#F4E2B1;}
	.st93{fill:#B96281;}
	.st94{fill:#B08979;}
	.st95{fill:#D9A2B2;}
	.st96{fill:#F0D0D9;}
	.st97{fill:#DCBFC8;}
	.st98{fill:#708761;}
	.st99{fill:#779366;}
	.st100{fill:#9FBF8B;}
	.st101{fill:#A37F72;}
	.st102{fill:#D59EAE;}
	.st103{fill:#BC6381;}
	.st104{fill:#716EA8;}
	.st105{fill:#8481B6;}
	.st106{fill:#918BC6;}
	.st107{fill:#76AFAF;}
	.st108{fill:#BEDBD8;}
	.st109{fill:#EAB9C9;}
	.st110{fill:#A03B3B;}
	.st111{fill:#893535;}
	.st112{fill:#EFCED8;}
	.st113{fill:#F7EB83;}
	.st114{fill:#F1D7D7;}
	.st115{fill:#A35773;}
	.st116{fill:#DCC832;}
	.st117{fill:#BD8F9E;}
	.st118{fill:#6F6DA6;}
	.st119{fill:#D7A0B0;}
	.st120{fill:#8C89CC;}
	.st121{fill:none;stroke:#FFFFFF;stroke-width:8;stroke-linecap:round;stroke-miterlimit:10;}
	.st122{fill:#B53C3C;}
	.st123{fill:#C5E3DF;}
	.st124{fill:#956C42;}
	.st125{fill:#BD8E4D;}
	.st126{fill:#A97C47;}
	.st127{fill:#F5DEAE;}
	.st128{fill:#EDC495;}
	.st129{fill:#6F6DA4;}
	.st130{fill:#704A42;}
	.st131{fill:#A57A46;}
	.st132{fill:#C4DEF9;}
	.st133{fill:#B4CDE2;}
	.st134{fill:#8F8CD2;}
	.st135{fill:#A6BDCB;}
	.st136{fill:#9EB3BE;}
	.st137{fill:#9BAEB9;}
	.st138{fill:#71A5A5;}
	.st139{fill:none;stroke:#31315D;stroke-width:8;stroke-miterlimit:10;}
	.st140{fill:#C1F6F6;}
	.st141{fill:#C66482;}
	.st142{fill:#ABD6D4;}
	.st143{fill:#A5597B;}
	.st144{fill:#ECCBD5;}
	.st145{fill:#3E3A73;}
	.st146{fill:#453D80;}
	.st147{fill:#31315D;}
	.st148{fill:#D3BEC5;}
	.st149{fill:#7370A9;}
	.st150{fill:#A0526B;}
	.st151{fill:#D3AA5F;}
	.st152{fill:#F1D69F;}
	.st153{fill:#CC9180;}
	.st154{fill:#E4A38D;}
	.st155{fill:#E0A693;}
	.st156{fill:#EDBCA8;}
	.st157{fill:#E0A745;}
	.st158{fill:#3C3970;}
	.st159{fill:#4E4991;}
	.st160{fill:#B3ADFB;}
	.st161{fill:#B9863F;}
	.st162{fill:#CD9642;}
	.st163{fill:#BA893F;}
	.st164{fill:#A97C3D;}
	.st165{fill:#182A3F;}
	.st166{fill:none;stroke:#805D31;stroke-width:12;stroke-linecap:round;stroke-miterlimit:10;}
	.st167{fill:#EAC382;}
	.st168{fill:#467ABC;}
	.st169{fill:#D19943;}
	.st170{fill:#C26280;}
	.st171{fill:#CD97A7;}
	.st172{fill:#DEDCDC;}
	.st173{fill:#A53636;}
	.st174{fill:#D6D6D6;}
	.st175{fill:#A67B47;}
	.st176{fill:#A0546F;}
	.st177{fill:#B8D6D3;}
	.st178{fill:#A19EF2;}
	.st179{fill:none;stroke:#453D80;stroke-width:8;stroke-linecap:round;stroke-miterlimit:10;}
	.st180{fill:#E08DA7;}
	.st181{fill:#DA6A19;}
	.st182{fill:#A7F6F6;}
	.st183{fill:#BE6480;}
	.st184{fill:#C2809A;}
	.st185{fill:#C06581;}
	.st186{fill:#A8607D;}
	.st187{fill:#618C88;}
	.st188{fill:#676797;}
	.st189{fill:#D2FFFC;}
	.st190{fill:#3C3870;}
	.st191{fill:#BFE3E0;}
	.st192{fill:#DEC888;}
	.st193{fill:#9A9AE4;}
	.st194{fill:#689795;}
	.st195{fill:#A1E8E8;}
	.st196{fill:#C3A062;}
	.st197{fill:#C5A162;}
	.st198{fill:#EDC771;}
	.st199{fill:#DBC586;}
	.st200{fill:#D1D1D1;}
	.st201{fill:#AF8F5B;}
	.st202{fill:#F6EAC7;}
	.st203{fill:#7F78B9;}
	.st204{fill:#E9A7B7;}
	.st205{fill:#8A87CA;}
	.st206{fill:#ECC6D5;}
	.st207{fill:#D1F6F3;}
	.st208{fill:#D69EAC;}
	.st209{fill:#AC8494;}
	.st210{fill:#BB8D9C;}
	.st211{fill:#7F7FBA;}
	.st212{fill:#C3E3DF;}
	.st213{fill:none;stroke:#5E8581;stroke-width:8;stroke-linecap:round;stroke-miterlimit:10;}
	.st214{fill:#669593;}
	.st215{fill:#74A8A8;}
	.st216{fill:#7EBBBC;}
	.st217{fill:#7AB3B0;}
	.st218{fill:#B5EFEF;}
	.st219{fill:#A6D9D7;}
	.st220{fill:#BD8F9F;}
	.st221{fill:#D29CAC;}
	.st222{fill:none;stroke:#98536E;stroke-width:8;stroke-linecap:round;stroke-miterlimit:10;}
	.st223{fill:#993737;}
	.st224{fill:#AC3939;}
	.st225{fill:#C3E1DD;}
	.st226{fill:#E5CE8C;}
	.st227{fill:#BF9869;}
	.st228{fill:#D3A971;}
	.st229{fill:#FBF4DD;}
	.st230{fill:#A35974;}
	.st231{fill:#73AAAA;}
	.st232{fill:#A55874;}
	.st233{fill:#E8BAAD;}
	.st234{fill:#DA9B8A;}
	.st235{fill:#D9B46B;}
	.st236{fill:#A36C56;}
	.st237{fill:#936252;}
	.st238{fill:#AB705D;}
	.st239{fill:#8A5C4D;}
	.st240{fill:#805649;}
	.st241{fill:#D3A29A;}
	.st242{fill:#AB5977;}
	.st243{fill:#B53F6A;}
	.st244{fill:#81574B;}
	.st245{fill:#F0D2DC;}
	.st246{fill:#93D4CF;}
	.st247{fill:#B6FBFB;}
	.st248{fill:#E0B96C;}
	.st249{fill:#A83A3A;}
	.st250{fill:#793131;}
	.st251{fill:#873333;}
	.st252{fill:#722E2E;}
	.st253{fill:#B53F3F;}
	.st254{fill:#E09393;}
	.st255{fill:#C4B180;}
	.st256{fill:#B19F76;}
	.st257{fill:#F3DC90;}
	.st258{fill:#E3CC8B;}
	.st259{fill:#774F43;}
	.st260{fill:#624038;}
	.st261{fill:#90FF9A;}
	.st262{fill:#91D2CD;}
	.st263{fill:#B4F9F9;}
	.st264{fill:#BB8C4D;}
	.st265{fill:#DE6E88;}
	.st266{fill:#BA6381;}
	.st267{fill:#B25B77;}
	.st268{fill:#9DD6D3;}
	.st269{fill:#B95F7C;}
	.st270{fill:#F3D5DF;}
	.st271{fill:#B9D9D6;}
	.st272{fill:#A9C7C4;}
	.st273{fill:#71A7A7;}
	.st274{fill:#833232;}
	.st275{fill:#9B3A3A;}
	.st276{fill:#752F2F;}
	.st277{fill:#B53E3E;}
	.st278{fill:#B58E9D;}
	.st279{fill:#BB909F;}
	.st280{fill:#CD99A8;}
	.st281{fill:#F2D9E1;}
	.st282{fill:#9BD4D1;}
	.st283{fill:#B2F7F7;}
	.st284{fill:#F1DA8E;}
	.st285{fill:#F2E0AF;}
	.st286{fill:#F9F9FF;}
	.st287{fill:#CA8F80;}
	.st288{fill:#E2A18B;}
	.st289{fill:#E6B8AB;}
	.st290{fill:#D89988;}
	.st291{fill:#D7B26B;}
	.st292{fill:#8D8ACE;}
	.st293{fill:#9FD6D2;}
	.st294{fill:#B3F3F0;}
	.st295{fill:#C8FFFF;}
	.st296{fill:#F4DAA4;}
	.st297{fill:#BFBFBF;}
	.st298{fill:#D7A2B2;}
	.st299{fill:#D4D4D4;}
	.st300{fill:#EDD094;}
	.st301{fill:#BF8E9D;}
	.st302{fill:#AA8190;}
	.st303{fill:#D69EAE;}
	.st304{fill:#AD3D3D;}
	.st305{fill:#8986CE;}
	.st306{fill:#B24B6B;}
	.st307{fill:#EFCD88;}
	.st308{fill:#F4E9CC;}
	.st309{fill:#CFAA66;}
	.st310{fill:#F8E9C9;}
	.st311{fill:#3B386E;}
	.st312{fill:#AA3939;}
	.st313{fill:#67433B;}
	.st314{fill:#CF9AAA;}
	.st315{fill:#C46583;}
	.st316{fill:#9491D7;}
	.st317{fill:#8784C9;}
	.st318{fill:#FBFBFB;}
	.st319{fill:#D3BE80;}
	.st320{fill:none;stroke:#453D80;stroke-width:8;stroke-miterlimit:10;}
	.st321{fill:#C591A0;}
	.st322{fill:#F1D7DF;}
	.st323{fill:#AD7F8E;}
	.st324{fill:#D8C3CA;}
	.st325{fill:#DFA868;}
	.st326{fill:#C66684;}
	.st327{fill:#C7C7C7;}
	.st328{fill:#AA5F80;}
	.st329{fill:#A75770;}
	.st330{fill:#93506A;}
	.st331{fill:#D1AC66;}
	.st332{fill:#F4E0B8;}
	.st333{fill:#F4D7E1;}
	.st334{fill:#EECA80;}
	.st335{fill:#C0DFFB;}
	.st336{fill:#DC5E5E;}
	.st337{fill:#CD9942;}
	.st338{fill:#E1AA46;}
	.st339{fill:#F4D8A2;}
	.st340{fill:#27918E;}
	.st341{fill:#29A3A3;}
	.st342{fill:#91D9D9;}
	.st343{fill:#BFA94C;}
	.st344{fill:#D3BA53;}
	.st345{fill:#F0E182;}
	.st346{fill:#EDD458;}
	.st347{fill:#AB7E47;}
	.st348{fill:#886358;}
	.st349{fill:#E3B47A;}
	.st350{fill:#413D79;}
	.st351{fill:#B76180;}
	.st352{fill:none;stroke:#1C314E;stroke-width:8;stroke-linecap:round;stroke-miterlimit:10;}
	.st353{fill:#E08F8D;}
	.st354{fill:#CFA0B0;}
	.st355{fill:#DC809F;}
	.st356{fill:#CF5181;}
	.st357{fill:#6967BA;}
	.st358{fill:#BC537D;}
	.st359{fill:#C2DCF7;}
	.st360{fill:#B2CBE0;}
	.st361{fill:#A4BBC9;}
	.st362{fill:#9CB0BC;}
	.st363{fill:#99ACB7;}
	.st364{fill:#559562;}
	.st365{fill:#4D8556;}
	.st366{fill:#453D7F;}
	.st367{fill:#57529E;}
	.st368{fill:#B8863C;}
	.st369{fill:#DEA545;}
	.st370{fill:#C46682;}
	.st371{fill:#B1607F;}
	.st372{fill:#A15B7B;}
	.st373{fill:#75AAAA;}
	.st374{fill:#EBC4D5;}
	.st375{fill:#866358;}
	.st376{fill:#DE8D8B;}
	.st377{fill:#BA883C;}
	.st378{fill:#569762;}
	.st379{fill:#4E8756;}
	.st380{fill:#5752A0;}
	.st381{fill:#B36080;}
	.st382{fill:#EDC6D7;}
	.st383{fill:#D19AAA;}
	.st384{fill:#E7B5B5;}
	.st385{fill:#676795;}
	.st386{fill:#E3B469;}
	.st387{fill:#7673AD;}
</style>
<g id="SvgjsG1327">
	<circle id="SvgjsCircle1326" class="st2" cx="256" cy="256" r="256"></circle>
</g>
<g id="SvgjsG1325">
	<g id="SvgjsG1324">
		<path id="SvgjsPath1323" class="st53" d="M322.1,422.4c-0.1-0.1-0.2-0.2-0.3-0.3c0.2,0.2,0.4,0.4,0.6,0.6
			C322.3,422.6,322.2,422.5,322.1,422.4z"></path>
		<path id="SvgjsPath1322" class="st53" d="M313,413.2c0.3,0.3,0.5,0.5,0.8,0.8C313.5,413.7,313.3,413.5,313,413.2z"></path>
		<path id="SvgjsPath1321" class="st53" d="M175.6,44.9c0,0.5,0,1,0,1.5c0-0.2,0-0.4,0-0.6C175.6,45.5,175.6,45.2,175.6,44.9z"></path>
		<path id="SvgjsPath1320" class="st53" d="M309.2,409.2c0.6,0.6,1.1,1.2,1.7,1.8C310.3,410.4,309.7,409.8,309.2,409.2z"></path>
		<path id="SvgjsPath1319" class="st53" d="M175.9,54.3c0,0.4,0,0.7,0,1.1l0-0.7C175.9,54.5,175.9,54.4,175.9,54.3z"></path>
		<path id="SvgjsPath1318" class="st53" d="M325.1,425.3c0.9,0.9,1.9,1.8,2.8,2.7C327,427.1,326.1,426.2,325.1,425.3z"></path>
		<path id="SvgjsPath1317" class="st53" d="M340.3,439.1c-0.2-0.2-0.4-0.3-0.6-0.5c0.4,0.3,0.8,0.7,1.2,1
			C340.8,439.4,340.5,439.3,340.3,439.1z"></path>
		<path id="SvgjsPath1316" class="st53" d="M335.4,434.8c0.3,0.2,0.6,0.5,0.8,0.7C335.9,435.3,335.7,435,335.4,434.8z"></path>
		<path id="SvgjsPath1315" class="st53" d="M363.3,405.3c-0.2,0-0.5-0.1-0.7-0.1C362.9,405.2,363.1,405.3,363.3,405.3z"></path>
		<path id="SvgjsPath1314" class="st53" d="M331,430.8c-0.1-0.1-0.2-0.2-0.3-0.3c0.5,0.5,1,0.9,1.5,1.4
			C331.9,431.6,331.4,431.2,331,430.8z"></path>
		<path id="SvgjsPath1313" class="st53" d="M367.4,405.1c-0.3,0.1-0.6,0.1-0.9,0.2C366.8,405.2,367.1,405.1,367.4,405.1z"></path>
		<path id="SvgjsPath1312" class="st53" d="M366.4,405.3c-0.3,0-0.6,0.1-0.8,0.1C365.9,405.4,366.1,405.3,366.4,405.3z"></path>
		<path id="SvgjsPath1311" class="st53" d="M364.3,405.4c-0.2,0-0.5,0-0.7-0.1C363.9,405.4,364.1,405.4,364.3,405.4z"></path>
		<path id="SvgjsPath1310" class="st53" d="M365.3,405.4c-0.2,0-0.5,0-0.7,0C364.9,405.4,365.1,405.4,365.3,405.4z"></path>
		<path id="SvgjsPath1309" class="st53" d="M362.4,405.1c-0.3-0.1-0.6-0.2-0.9-0.3C361.8,405,362.1,405.1,362.4,405.1z"></path>
		<path id="SvgjsPath1308" class="st53" d="M345.1,443.1c-0.3-0.2-0.6-0.5-0.9-0.8c0.5,0.4,1.1,0.9,1.6,1.3
			C345.6,443.5,345.3,443.3,345.1,443.1z"></path>
		<path id="SvgjsPath1307" class="st53" d="M175.7,48.1c0-0.5,0-0.9,0-1.3C175.7,47.3,175.7,47.7,175.7,48.1z"></path>
		<path id="SvgjsPath1306" class="st53" d="M443.4,163.5c2.5,0.9,4.5,2.6,5.7,4.8C447.9,166.1,445.9,164.4,443.4,163.5l-52-17.7v0
			L443.4,163.5z"></path>
		<path id="SvgjsPath1305" class="st53" d="M175.8,50c0-0.5,0-0.9,0-1.3C175.7,49,175.7,49.5,175.8,50z"></path>
		<path id="SvgjsPath1304" class="st53" d="M367.9,404.9c0.1,0,0.2,0,0.2-0.1h0C368.1,404.9,368,404.9,367.9,404.9z"></path>
		<path id="SvgjsPath1303" class="st53" d="M175.6,44.5c0-0.1,0-0.2,0-0.3C175.6,44.3,175.6,44.4,175.6,44.5z"></path>
		<path id="SvgjsPath1302" class="st53" d="M374.8,465.2c0.7,0.5,1.4,0.9,2.1,1.4C376.2,466.1,375.5,465.6,374.8,465.2z"></path>
		<path id="SvgjsPath1301" class="st53" d="M355,450.9c-1.8-1.4-3.6-2.8-5.4-4.2c2.1,1.7,4.2,3.3,6.3,4.9
			C355.6,451.4,355.3,451.2,355,450.9z"></path>
		<path id="SvgjsPath1300" class="st53" d="M368,460.5c1.8,1.2,3.6,2.5,5.4,3.7C371.5,462.9,369.7,461.7,368,460.5z"></path>
		<path id="SvgjsPath1299" class="st53" d="M360.2,454.9c2,1.5,4.1,3,6.2,4.4C364.3,457.9,362.2,456.4,360.2,454.9z"></path>
		<path id="SvgjsPath1298" class="st53" d="M319.1,419.4c-0.9-0.9-1.8-1.8-2.8-2.8C317.3,417.6,318.2,418.5,319.1,419.4z"></path>
		<path id="SvgjsPath1297" class="st132" d="M175.6,44.2c0,0.1,0,0.2,0,0.3c0,0.1,0,0.3,0,0.4c0,0.3,0,0.6,0,0.9c0,0.2,0,0.4,0,0.6
			c0,0.1,0,0.3,0,0.4c0,0.4,0,0.8,0,1.3c0,0.2,0,0.3,0,0.5c0,0.4,0,0.9,0,1.3c0,1.3,0.1,2.7,0.2,4.3c0,0.1,0,0.3,0,0.4l0,0.7h40.4
			l-40.8-13.9C175.6,41.5,175.6,42.4,175.6,44.2z"></path>
		<path id="SvgjsPath1296" class="st132" d="M480.4,145l-89-30.2v31.1l52,17.7c2.5,0.9,4.5,2.6,5.7,4.8c1.4,2.5,1.8,5.6,0.8,8.5
			l-58.6,172.5v45.1c0,5.8-4.7,10.5-10.5,10.5h-12.7c-0.1,0-0.2,0-0.2,0.1c-0.2,0.1-0.3,0.1-0.5,0.2c-0.3,0.1-0.6,0.1-0.9,0.2
			c0,0-0.1,0-0.1,0c-0.3,0-0.6,0.1-0.8,0.1c-0.1,0-0.2,0-0.2,0c-0.2,0-0.5,0-0.7,0c-0.1,0-0.2,0-0.3,0c-0.2,0-0.5,0-0.7-0.1
			c-0.1,0-0.2,0-0.3,0c-0.2,0-0.5-0.1-0.7-0.1c-0.1,0-0.2,0-0.3-0.1c-0.3-0.1-0.6-0.2-0.9-0.3c0,0-0.1,0-0.1,0l-0.1,0h-56.1
			c1.3,1.5,2.6,2.9,4,4.3c0.6,0.6,1.1,1.2,1.7,1.8c0.7,0.7,1.4,1.5,2.1,2.2c0.2,0.3,0.5,0.5,0.8,0.8c0.9,0.9,1.7,1.8,2.6,2.7
			c0.9,0.9,1.8,1.9,2.8,2.8c0.9,0.9,1.8,1.8,2.7,2.6c0.1,0.1,0.2,0.2,0.3,0.3c0.1,0.1,0.2,0.2,0.3,0.3c0.9,0.9,1.8,1.8,2.8,2.7
			c0.9,0.9,1.9,1.8,2.8,2.7c0.9,0.9,1.8,1.7,2.8,2.6c0.1,0.1,0.2,0.2,0.3,0.3c0.4,0.4,0.8,0.8,1.3,1.1c1,0.9,2.1,1.9,3.1,2.8
			c0.3,0.2,0.6,0.5,0.8,0.7c1.2,1,2.4,2.1,3.5,3.1c0.2,0.2,0.4,0.3,0.6,0.5c0.2,0.2,0.4,0.4,0.6,0.5c1.1,0.9,2.2,1.8,3.2,2.7
			c0.3,0.3,0.6,0.5,0.9,0.8c0.2,0.2,0.5,0.4,0.7,0.6c1.2,1,2.5,2,3.8,3.1c1.8,1.4,3.6,2.8,5.4,4.2c0.3,0.2,0.6,0.5,0.9,0.7
			c1.4,1.1,2.9,2.2,4.3,3.3c2,1.5,4.1,3,6.2,4.4c0.5,0.4,1.1,0.8,1.6,1.1c1.8,1.2,3.6,2.5,5.4,3.7c0.5,0.3,1,0.7,1.5,1
			c0.7,0.5,1.4,0.9,2.1,1.4c1.5,1,2.9,1.9,4.4,2.9l105.6-311.1C488.8,152.8,485.8,146.9,480.4,145z"></path>
		<path id="SvgjsPath1295" class="st4" d="M361.3,404.8L361.3,404.8c0.1,0,0.1,0,0.1,0c0.3,0.1,0.6,0.2,0.9,0.3c0.1,0,0.2,0,0.3,0.1
			c0.2,0,0.5,0.1,0.7,0.1c0.1,0,0.2,0,0.3,0c0.2,0,0.5,0,0.7,0.1c0.1,0,0.2,0,0.3,0c0.2,0,0.5,0,0.7,0c0.1,0,0.2,0,0.2,0
			c0.3,0,0.6-0.1,0.8-0.1c0,0,0.1,0,0.1,0c0.3-0.1,0.6-0.1,0.9-0.2c0.2,0,0.4-0.1,0.5-0.2c0.1,0,0.1,0,0.2-0.1H361.3z"></path>
		<path id="SvgjsPath1294" class="st4" d="M443.4,163.5l-52-17.7v36.7c1.5,1,2.8,2.4,3.7,4.2c0.5,1,1.6,1.4,2.6,0.9
			c2.7-1.3,5.6-1.4,8.3-0.5s4.9,2.8,6.2,5.5c2.6,5.4,0.4,11.9-4.9,14.5l-8.5,4.2l-7.3,3.6v21.9c1.8,1,3.2,2.6,4.2,4.5
			c2.5,5.1,0.6,11.2-4.2,14.1v93.9l58.6-172.5c1-2.9,0.6-6-0.8-8.5C447.9,166.1,445.9,164.4,443.4,163.5z"></path>
		<path id="SvgjsPath1293" class="st4" d="M367.9,404.9c-0.2,0.1-0.3,0.1-0.5,0.2C367.6,405,367.8,405,367.9,404.9z"></path>
		<path id="SvgjsPath1292" class="st4" d="M449.9,176.8l-58.6,172.5v0L449.9,176.8c1-2.9,0.6-6-0.8-8.5
			C450.5,170.8,450.9,173.9,449.9,176.8z"></path>
		<path id="SvgjsPath1291" class="st4" d="M361.3,404.8L361.3,404.8L361.3,404.8c0.1,0,0.1,0,0.1,0
			C361.4,404.9,361.4,404.9,361.3,404.8L361.3,404.8z"></path>
		<path id="SvgjsPath1290" class="st4" d="M363.6,405.3c-0.1,0-0.2,0-0.3,0C363.4,405.3,363.5,405.3,363.6,405.3z"></path>
		<path id="SvgjsPath1289" class="st4" d="M362.6,405.2c-0.1,0-0.2,0-0.3-0.1C362.4,405.2,362.5,405.2,362.6,405.2z"></path>
		<path id="SvgjsPath1288" class="st4" d="M366.5,405.3c0,0-0.1,0-0.1,0C366.5,405.3,366.5,405.3,366.5,405.3z"></path>
		<path id="SvgjsPath1287" class="st4" d="M365.6,405.4c-0.1,0-0.2,0-0.2,0C365.4,405.4,365.5,405.4,365.6,405.4z"></path>
		<path id="SvgjsPath1286" class="st4" d="M364.6,405.4c-0.1,0-0.2,0-0.3,0C364.4,405.4,364.5,405.4,364.6,405.4z"></path>
		<path id="SvgjsPath1285" class="st133" d="M376.9,466.5c-0.7-0.5-1.4-0.9-2.1-1.4c-0.2-0.2-0.5-0.3-0.7-0.5
			c-0.3-0.2-0.5-0.3-0.8-0.5c-1.8-1.2-3.6-2.5-5.4-3.7c-0.5-0.4-1.1-0.8-1.6-1.1c-2.1-1.5-4.1-2.9-6.2-4.4c-0.1,0-0.1-0.1-0.2-0.1
			c-0.8-0.6-1.7-1.2-2.5-1.9c0,0,0,0-0.1-0.1c-0.5-0.4-1.1-0.8-1.6-1.2c-2.1-1.6-4.2-3.3-6.3-4.9c-0.1-0.1-0.1-0.1-0.2-0.2
			c-0.9-0.7-1.9-1.5-2.8-2.2c-0.3-0.2-0.5-0.4-0.8-0.7c-0.5-0.4-1.1-0.9-1.6-1.3c-0.5-0.4-1-0.8-1.5-1.2c-0.6-0.5-1.2-1-1.7-1.5
			c-0.4-0.3-0.8-0.7-1.2-1c-0.5-0.5-1.1-0.9-1.6-1.4c-0.6-0.6-1.3-1.1-1.9-1.7c-0.3-0.2-0.6-0.5-0.8-0.7c-0.1-0.1-0.2-0.2-0.4-0.3
			c-0.9-0.8-1.8-1.6-2.7-2.5c-0.5-0.5-1-0.9-1.5-1.4c-0.5-0.5-1-0.9-1.5-1.4c-0.4-0.4-0.8-0.8-1.2-1.2c-0.9-0.9-1.9-1.8-2.8-2.7
			c-0.3-0.3-0.6-0.5-0.9-0.8c-0.6-0.6-1.3-1.2-1.9-1.8c-0.2-0.2-0.4-0.4-0.6-0.6c-0.6-0.6-1.2-1.2-1.9-1.8c-0.3-0.3-0.5-0.5-0.8-0.8
			c-0.9-0.9-1.8-1.8-2.8-2.8c-0.3-0.3-0.5-0.5-0.8-0.8c-0.4-0.4-0.8-0.8-1.2-1.2c-0.2-0.2-0.4-0.4-0.6-0.7c-0.3-0.3-0.5-0.5-0.8-0.8
			c-0.1-0.1-0.2-0.2-0.3-0.4c-0.6-0.6-1.2-1.3-1.8-1.9c-0.6-0.6-1.1-1.2-1.7-1.8c-1.3-1.4-2.7-2.9-4-4.3H158.7L368,475.9
			c5.5,1.9,11.4-1.1,13.3-6.5c-1.2-0.8-2.5-1.6-3.7-2.4C377.3,466.8,377.1,466.7,376.9,466.5z"></path>
		<path id="SvgjsPath1284" class="st133" d="M175.9,54.3c0-0.5,0-1.1-0.1-1.6c0-0.7,0-1.4-0.1-2c0-0.2,0-0.4,0-0.6c0-0.1,0-0.1,0-0.2
			c0-0.5,0-0.9,0-1.3c0-0.2,0-0.3,0-0.5c0-0.5,0-0.9,0-1.3c0,0,0-0.1,0-0.2c0-0.1,0-0.2,0-0.3c0-0.5,0-1.1,0-1.5c0-0.2,0-0.3,0-0.4
			c0-0.1,0-0.2,0-0.3c0-1.8,0-2.7,0-2.7c-5.5-1.9-11.4,1.1-13.3,6.5l-2.5,7.3H176C176,55,175.9,54.6,175.9,54.3z"></path>
		<path id="SvgjsPath1283" class="st133" d="M315.6,415.9c0.3,0.3,0.5,0.5,0.8,0.8c-0.9-0.9-1.7-1.8-2.6-2.7c0.2,0.2,0.4,0.4,0.6,0.7
			C314.8,415.1,315.2,415.5,315.6,415.9z"></path>
		<path id="SvgjsPath1282" class="st133" d="M313,413.2c-0.7-0.7-1.4-1.5-2.1-2.2c0.6,0.6,1.2,1.3,1.8,1.9
			C312.8,413,312.9,413.1,313,413.2z"></path>
		<path id="SvgjsPath1281" class="st133" d="M321.8,422.1c-0.9-0.9-1.8-1.8-2.7-2.6c0.3,0.3,0.5,0.5,0.8,0.8
			C320.5,420.9,321.1,421.5,321.8,422.1z"></path>
		<path id="SvgjsPath1280" class="st133" d="M377.5,467c1.2,0.8,2.5,1.6,3.7,2.4c-1.5-0.9-2.9-1.9-4.4-2.9
			C377.1,466.7,377.3,466.8,377.5,467z"></path>
		<path id="SvgjsPath1279" class="st133" d="M175.6,44.9c0-0.1,0-0.3,0-0.4C175.6,44.6,175.6,44.8,175.6,44.9z"></path>
		<path id="SvgjsPath1278" class="st133" d="M305.2,404.8c1.3,1.5,2.6,2.9,4,4.3C307.8,407.7,306.5,406.3,305.2,404.8z"></path>
		<path id="SvgjsPath1277" class="st133" d="M349.4,446.6c0.1,0.1,0.1,0.1,0.2,0.2c-1.3-1-2.5-2-3.8-3.1c0.3,0.2,0.5,0.4,0.8,0.7
			C347.5,445.1,348.4,445.8,349.4,446.6z"></path>
		<path id="SvgjsPath1276" class="st133" d="M374.8,465.2c-0.5-0.3-1-0.7-1.5-1c0.3,0.2,0.5,0.3,0.8,0.5
			C374.3,464.8,374.6,465,374.8,465.2z"></path>
		<path id="SvgjsPath1275" class="st133" d="M357.5,452.9c0.8,0.6,1.7,1.2,2.5,1.9c0.1,0,0.1,0.1,0.2,0.1c-1.5-1.1-2.9-2.2-4.3-3.3
			C356.4,452,356.9,452.5,357.5,452.9C357.5,452.9,357.5,452.9,357.5,452.9z"></path>
		<path id="SvgjsPath1274" class="st133" d="M330.7,430.6c-0.9-0.9-1.9-1.7-2.8-2.6c0.4,0.4,0.8,0.8,1.2,1.2
			C329.7,429.6,330.2,430.1,330.7,430.6z"></path>
		<path id="SvgjsPath1273" class="st133" d="M175.7,46.7c0,0,0,0.1,0,0.2c0-0.1,0-0.3,0-0.4C175.7,46.5,175.7,46.6,175.7,46.7z"></path>
		<path id="SvgjsPath1272" class="st133" d="M175.6,44.2c0-1.8,0-2.7,0-2.7S175.6,42.5,175.6,44.2z"></path>
		<path id="SvgjsPath1271" class="st133" d="M335.4,434.8c-1-0.9-2.1-1.9-3.1-2.8c0.9,0.8,1.8,1.6,2.7,2.5
			C335.1,434.6,335.3,434.7,335.4,434.8z"></path>
		<path id="SvgjsPath1270" class="st133" d="M339.8,438.6c-1.2-1-2.4-2.1-3.5-3.1c0.6,0.6,1.3,1.1,1.9,1.7
			C338.7,437.7,339.2,438.1,339.8,438.6z"></path>
		<path id="SvgjsPath1269" class="st133" d="M344.2,442.3c-1.1-0.9-2.2-1.8-3.2-2.7c0.6,0.5,1.2,1,1.7,1.5
			C343.2,441.5,343.7,441.9,344.2,442.3z"></path>
		<path id="SvgjsPath1268" class="st133" d="M325.1,425.3c-0.9-0.9-1.8-1.8-2.8-2.7c0.6,0.6,1.3,1.2,1.9,1.8
			C324.6,424.8,324.8,425.1,325.1,425.3z"></path>
		<path id="SvgjsPath1267" class="st133" d="M175.8,50.1c0,0.2,0,0.4,0,0.6c0,0.6,0,1.3,0.1,2c0,0.5,0,1,0.1,1.6
			c-0.1-1.6-0.1-3-0.2-4.3C175.8,50,175.8,50.1,175.8,50.1z"></path>
		<path id="SvgjsPath1266" class="st133" d="M366.3,459.3c0.5,0.4,1.1,0.8,1.6,1.1C367.4,460.1,366.9,459.7,366.3,459.3z"></path>
		<path id="SvgjsPath1265" class="st133" d="M175.7,48.6c0-0.2,0-0.3,0-0.5C175.7,48.3,175.7,48.5,175.7,48.6z"></path>
		<path id="SvgjsPath1264" class="st134" d="M395.5,241.3c-1-2-2.5-3.5-4.2-4.5v18.6C396.2,252.5,398,246.4,395.5,241.3z"></path>
		<path id="SvgjsPath1263" class="st134" d="M398.6,211.2l8.5-4.2c5.4-2.6,7.6-9.1,4.9-14.5c-1.3-2.7-3.6-4.6-6.2-5.5
			s-5.6-0.8-8.3,0.5c-1,0.5-2.1,0.1-2.6-0.9c-0.9-1.8-2.2-3.2-3.7-4.2v32.3L398.6,211.2z"></path>
		<path id="SvgjsPath1262" class="st135" d="M372.2,402.3c-0.1,0.1-0.1,0.1-0.2,0.2C372.1,402.4,372.2,402.3,372.2,402.3z"></path>
		<path id="SvgjsPath1261" class="st135" d="M369.3,404.4C369.2,404.4,369.2,404.4,369.3,404.4C369.2,404.4,369.2,404.4,369.3,404.4z"></path>
		<path id="SvgjsPath1260" class="st135" d="M373.7,400.4c-0.1,0.1-0.1,0.2-0.2,0.2C373.6,400.6,373.6,400.5,373.7,400.4z"></path>
		<path id="SvgjsPath1259" class="st135" d="M371.3,403.1C371.3,403.1,371.2,403.2,371.3,403.1C371.2,403.2,371.3,403.1,371.3,403.1z"></path>
		<path id="SvgjsPath1258" class="st135" d="M301.2,400.2c-0.8-1-1.7-1.9-2.5-2.9C299.5,398.3,300.3,399.3,301.2,400.2z"></path>
		<path id="SvgjsPath1257" class="st135" d="M180.4,85.3l-1.3,3.8L180.4,85.3c1.9-5.5,7.8-8.4,13.3-6.5l197.6,67.1v0L193.7,78.7
			C188.2,76.9,182.3,79.8,180.4,85.3z"></path>
		<path id="SvgjsPath1256" class="st135" d="M373,401.4c-0.1,0.1-0.1,0.2-0.2,0.2C372.9,401.5,372.9,401.5,373,401.4z"></path>
		<path id="SvgjsPath1255" class="st135" d="M294,391.9c0,0-0.1-0.1-0.1-0.1C294,391.8,294,391.8,294,391.9z"></path>
		<path id="SvgjsPath1254" class="st135" d="M368.2,404.8L368.2,404.8C368.2,404.8,368.2,404.8,368.2,404.8
			C368.2,404.8,368.2,404.8,368.2,404.8z"></path>
		<path id="SvgjsPath1253" class="st135" d="M283.3,378.4l-171.6-58.3c-5.5-1.9-8.4-7.8-6.5-13.3l45.9-135.3l-45.9,135.3
			c-1.9,5.5,1.1,11.4,6.5,13.3L283.3,378.4l69.4,23.6L283.3,378.4z"></path>
		<path id="SvgjsPath1252" class="st135" d="M177.4,77.2c0,0.1,0,0.2,0,0.4c0,0,0,0,0,0C177.4,77.4,177.4,77.3,177.4,77.2z"></path>
		<path id="SvgjsPath1251" class="st135" d="M283.3,378.4c1.8,2.4,3.7,4.8,5.5,7.1c-0.1-0.1-0.2-0.3-0.3-0.4
			C286.8,382.9,285.1,380.6,283.3,378.4z"></path>
		<path id="SvgjsPath1250" class="st135" d="M178.2,85.9c0.1,1.5,0.3,3,0.5,4.6l0,0C178.5,88.9,178.3,87.4,178.2,85.9z"></path>
		<path id="SvgjsPath1249" class="st135" d="M304.9,404.4c0.1,0.1,0.2,0.3,0.4,0.4C305.1,404.7,305,404.6,304.9,404.4
			C304.9,404.5,304.9,404.5,304.9,404.4z"></path>
		<path id="SvgjsPath1248" class="st135" d="M374.2,399.4c0,0.1-0.1,0.1-0.1,0.2C374.2,399.5,374.2,399.5,374.2,399.4z"></path>
		<path id="SvgjsPath1247" class="st135" d="M176.8,69.6c0,0.4,0.1,0.9,0.1,1.3c0-0.1,0-0.2,0-0.3C176.9,70.3,176.8,70,176.8,69.6z"></path>
		<path id="SvgjsPath1246" class="st135" d="M176.1,58.6c0-0.3,0-0.6,0-0.9c0,0.5,0.1,1.1,0.1,1.6c0-0.2,0-0.4,0-0.6
			C176.1,58.7,176.1,58.7,176.1,58.6z"></path>
		<path id="SvgjsPath1245" class="st136" d="M374.2,399.4c0,0.1-0.1,0.1-0.1,0.2c-0.1,0.3-0.3,0.6-0.5,0.8c-0.1,0.1-0.1,0.2-0.2,0.2
			c-0.2,0.2-0.3,0.5-0.5,0.7c-0.1,0.1-0.1,0.2-0.2,0.2c-0.2,0.2-0.4,0.4-0.6,0.6c-0.1,0.1-0.1,0.1-0.2,0.2c-0.2,0.2-0.5,0.5-0.7,0.7
			c0,0-0.1,0-0.1,0.1c-0.6,0.5-1.3,0.9-2,1.2c0,0,0,0,0,0c-0.3,0.2-0.7,0.3-1,0.4c0,0,0,0-0.1,0h12.7c5.8,0,10.5-4.7,10.5-10.5
			v-45.1l-16.6,49C374.5,398.7,374.4,399.1,374.2,399.4z"></path>
		<path id="SvgjsPath1244" class="st136" d="M283.3,378.4c1.7,2.3,3.5,4.5,5.2,6.7c0.1,0.1,0.2,0.3,0.3,0.4c1.7,2.1,3.3,4.2,5,6.2
			c0,0,0.1,0.1,0.1,0.1c1.5,1.8,3.1,3.7,4.6,5.5c0.8,1,1.7,1.9,2.5,2.9c1.2,1.4,2.4,2.8,3.7,4.2c0,0,0,0,0.1,0.1
			c0.1,0.1,0.2,0.2,0.3,0.3h56.1l-8.5-2.9L283.3,378.4z"></path>
		<path id="SvgjsPath1243" class="st136" d="M176.1,57.7c0,0.3,0,0.6,0,0.9c0,0.1,0,0.1,0,0.2c0,0.2,0,0.4,0,0.6
			c0.2,3.1,0.4,6.5,0.6,10.3c0,0.3,0,0.7,0.1,1c0,0.1,0,0.2,0,0.3c0.1,2,0.3,4.1,0.5,6.3c0,0.1,0,0.2,0,0.3c0,0,0,0,0,0
			c0.2,2.7,0.5,5.4,0.8,8.3c0.1,1.5,0.3,3,0.5,4.6l0.5-1.4l1.3-3.8c1.9-5.5,7.8-8.4,13.3-6.5l197.6,67.1v-31.1L216.4,55.4H176
			C176,56.1,176,56.9,176.1,57.7z"></path>
		<polygon id="SvgjsPolygon1242" class="st135" points="178.6,90.5 178.6,90.5 178.6,90.5 		"></polygon>
		<path id="SvgjsPath1241" class="st86" d="M178.6,90.5c2.2,21.3,6.1,48.2,12.7,78.2c0.4,0.1,0.8,0.2,1.2,0.3c2.6,0.9,4.9,2.8,6.2,5.5
			c0.5,1,1.6,1.4,2.6,0.9c2.7-1.3,5.6-1.4,8.3-0.5c2.6,0.9,4.9,2.8,6.2,5.5c2.6,5.4,0.4,11.9-4.9,14.5l-8.5,4.2l-3.2,1.6
			c8,29.5,18.8,60.8,33.2,92c0.9,0.1,1.7,0.2,2.5,0.5c2.6,0.9,4.9,2.8,6.2,5.5c1.8,3.6,1.4,7.6-0.7,10.7
			c12,23.6,26.1,46.9,42.9,69.1l69.4,23.6l8.5,2.9h6.8c0,0,0.1,0,0.1,0c0.3-0.1,0.7-0.3,1-0.4c0,0,0,0,0,0c0.7-0.3,1.4-0.7,2-1.2
			c0,0,0.1,0,0.1-0.1c0.3-0.2,0.5-0.4,0.7-0.7c0.1-0.1,0.1-0.1,0.2-0.2c0.2-0.2,0.4-0.4,0.6-0.6c0.1-0.1,0.1-0.2,0.2-0.2
			c0.2-0.2,0.3-0.5,0.5-0.7c0.1-0.1,0.1-0.2,0.2-0.2c0.2-0.3,0.3-0.6,0.5-0.8c0-0.1,0.1-0.1,0.1-0.2c0.2-0.4,0.3-0.7,0.5-1.1
			l16.7-49v-93.9c-0.2,0.1-0.5,0.3-0.7,0.4l-8.5,4.2l-8.7,4.3c-2.2,1.1-4.8,0.2-5.9-2L359,245c-1.3-2.7-1.4-5.6-0.5-8.3
			c0.9-2.6,2.8-4.9,5.5-6.2c2.2-1.1,4.6-1.4,6.8-0.9c0.5,0.1,1,0.2,1.5,0.4c2.6,0.9,4.9,2.8,6.2,5.5c0.5,1,1.6,1.4,2.6,0.9
			c2.7-1.3,5.6-1.4,8.3-0.5c0.7,0.2,1.4,0.6,2,0.9v-21.9l-1.4,0.7c-2.2,1.1-4.8,0.2-5.9-2l-8.5-17.2c-1.3-2.7-1.4-5.6-0.5-8.3
			c0.9-2.6,2.8-4.9,5.5-6.2c2.2-1.1,4.6-1.4,6.8-0.9c0.5,0.1,1,0.2,1.5,0.4c0.9,0.3,1.8,0.7,2.6,1.3v-36.7L193.7,78.7
			c-5.5-1.9-11.4,1.1-13.3,6.5l-1.3,3.8L178.6,90.5L178.6,90.5z M297.3,333.8l-8.5,4.2l-8.7,4.3c-2.2,1.1-4.8,0.2-5.9-2l-8.5-17.2
			c-1.3-2.7-1.4-5.6-0.5-8.3c0.9-2.6,2.8-4.9,5.5-6.2c2.2-1.1,4.6-1.4,6.8-0.9c0.5,0.1,1,0.2,1.5,0.4c2.6,0.9,4.9,2.8,6.2,5.5
			c0.5,1,1.6,1.4,2.6,0.9c2.7-1.3,5.6-1.4,8.3-0.5s4.9,2.8,6.2,5.5C304.9,324.7,302.7,331.2,297.3,333.8z M357.2,354.1l-8.5,4.2
			l-8.7,4.3c-2.2,1.1-4.8,0.2-5.9-2l-8.5-17.2c-1.3-2.7-1.4-5.6-0.5-8.3s2.8-4.9,5.5-6.2c2.2-1.1,4.6-1.4,6.8-0.9
			c0.5,0.1,1,0.2,1.5,0.4c2.6,0.9,4.9,2.8,6.2,5.5c0.5,1,1.6,1.4,2.6,0.9c2.7-1.3,5.6-1.4,8.3-0.5s4.9,2.8,6.2,5.5
			C364.8,345,362.6,351.5,357.2,354.1z M355.2,280.1c2.6,0.9,4.9,2.8,6.2,5.5c0.5,1,1.6,1.4,2.6,0.9c2.7-1.3,5.6-1.4,8.3-0.5
			c2.6,0.9,4.9,2.8,6.2,5.5c2.6,5.4,0.4,11.9-4.9,14.5l-8.5,4.2l-8.7,4.3c-2.2,1.1-4.8,0.2-5.9-2l-8.5-17.2
			c-1.3-2.7-1.4-5.6-0.5-8.3c0.9-2.6,2.8-4.9,5.5-6.2c2.2-1.1,4.6-1.4,6.8-0.9C354.2,279.8,354.7,279.9,355.2,280.1z M315.1,167.7
			c0.9-2.6,2.8-4.9,5.5-6.2c2.2-1.1,4.6-1.4,6.8-0.9c0.5,0.1,1,0.2,1.5,0.4c2.6,0.9,4.9,2.8,6.2,5.5c0.5,1,1.6,1.4,2.6,0.9
			c2.7-1.3,5.6-1.4,8.3-0.5c2.6,0.9,4.9,2.8,6.2,5.5c2.6,5.4,0.4,11.9-4.9,14.5l-8.5,4.2l-8.7,4.3c-2.2,1.1-4.8,0.2-5.9-2l-8.5-17.2
			C314.4,173.2,314.3,170.3,315.1,167.7z M298.6,216.4c0.9-2.6,2.8-4.9,5.5-6.2c2.2-1.1,4.6-1.4,6.8-0.9c0.5,0.1,1,0.2,1.5,0.4
			c2.6,0.9,4.9,2.8,6.2,5.5c0.5,1,1.6,1.4,2.6,0.9c2.7-1.3,5.6-1.4,8.3-0.5c2.6,0.9,4.9,2.8,6.2,5.5c2.6,5.4,0.4,11.9-4.9,14.5
			l-8.5,4.2l-8.7,4.3c-2.2,1.1-4.8,0.2-5.9-2l-8.5-17.2C297.8,222,297.7,219.1,298.6,216.4z M295.3,259.7c2.6,0.9,4.9,2.8,6.2,5.5
			c0.5,1,1.6,1.4,2.6,0.9c2.7-1.3,5.6-1.4,8.3-0.5s4.9,2.8,6.2,5.5c2.6,5.4,0.4,11.9-4.9,14.5l-8.5,4.2l-8.7,4.3
			c-2.2,1.1-4.8,0.2-5.9-2l-8.5-17.2c-1.3-2.7-1.4-5.6-0.5-8.3c0.9-2.6,2.8-4.9,5.5-6.2c2.2-1.1,4.6-1.4,6.8-0.9
			C294.3,259.4,294.8,259.6,295.3,259.7z M254.1,146.9c0.9-2.6,2.8-4.9,5.5-6.2c2.2-1.1,4.6-1.4,6.8-0.9c0.5,0.1,1,0.2,1.5,0.4
			c2.6,0.9,4.9,2.8,6.2,5.5c0.5,1,1.6,1.4,2.6,0.9c2.7-1.3,5.6-1.4,8.3-0.5c2.6,0.9,4.9,2.8,6.2,5.5c2.6,5.4,0.4,11.9-4.9,14.5
			l-8.5,4.2l-8.7,4.3c-2.2,1.1-4.8,0.2-5.9-2l-8.5-17.2C253.3,152.5,253.2,149.5,254.1,146.9z M237.5,195.7c0.9-2.6,2.8-4.9,5.5-6.2
			c2.2-1.1,4.6-1.4,6.8-0.9c0.5,0.1,1,0.2,1.5,0.4c2.6,0.9,4.9,2.8,6.2,5.5c0.5,1,1.6,1.4,2.6,0.9c2.7-1.3,5.6-1.4,8.3-0.5
			s4.9,2.8,6.2,5.5c2.6,5.4,0.4,11.9-4.9,14.5l-8.5,4.2l-8.7,4.3c-2.2,1.1-4.8,0.2-5.9-2L238,204
			C236.7,201.3,236.6,198.3,237.5,195.7z M240.5,244.4c0.5,1,1.6,1.4,2.6,0.9c2.7-1.3,5.6-1.4,8.3-0.5s4.9,2.8,6.2,5.5
			c2.6,5.4,0.4,11.9-4.9,14.5l-8.5,4.2l-8.7,4.3c-2.2,1.1-4.8,0.2-5.9-2L221,254c-1.3-2.7-1.4-5.6-0.5-8.3c0.9-2.6,2.8-4.9,5.5-6.2
			c2.2-1.1,4.6-1.4,6.8-0.9c0.5,0.1,1,0.2,1.5,0.4C236.9,239.9,239.1,241.8,240.5,244.4z M195.4,127c0.9-2.6,2.8-4.9,5.5-6.2
			c2.2-1.1,4.6-1.4,6.8-0.9c0.5,0.1,1,0.2,1.5,0.4c2.6,0.9,4.9,2.8,6.2,5.5c0.5,1,1.6,1.4,2.6,0.9c2.7-1.3,5.6-1.4,8.3-0.5
			s4.9,2.8,6.2,5.5c2.6,5.4,0.4,11.9-4.9,14.5l-8.5,4.2l-8.7,4.3c-2.2,1.1-4.8,0.2-5.9-2l-8.5-17.2
			C194.6,132.6,194.5,129.6,195.4,127z"></path>
		<path id="SvgjsPath1240" class="st135" d="M374.1,399.6c-0.1,0.3-0.3,0.6-0.5,0.8C373.8,400.2,374,399.9,374.1,399.6z"></path>
		<path id="SvgjsPath1239" class="st135" d="M372,402.4c-0.2,0.2-0.5,0.5-0.7,0.7C371.6,402.9,371.8,402.7,372,402.4z"></path>
		<path id="SvgjsPath1238" class="st135" d="M373.5,400.7c-0.2,0.2-0.3,0.5-0.5,0.7C373.2,401.2,373.3,400.9,373.5,400.7z"></path>
		<path id="SvgjsPath1237" class="st135" d="M372.8,401.6c-0.2,0.2-0.4,0.4-0.6,0.6C372.4,402.1,372.6,401.8,372.8,401.6z"></path>
		<path id="SvgjsPath1236" class="st135" d="M371.2,403.2c-0.6,0.5-1.3,0.9-2,1.2C369.9,404.1,370.6,403.7,371.2,403.2z"></path>
		<polygon id="SvgjsPolygon1235" class="st135" points="352.8,401.9 361.3,404.8 361.3,404.8 		"></polygon>
		<polygon id="SvgjsPolygon1234" class="st135" points="179.1,89.1 178.6,90.5 178.6,90.5 		"></polygon>
		<path id="SvgjsPath1233" class="st135" d="M374.7,398.3c-0.1,0.4-0.3,0.8-0.5,1.1C374.4,399.1,374.5,398.7,374.7,398.3l16.7-49v0
			L374.7,398.3z"></path>
		<path id="SvgjsPath1232" class="st135" d="M369.2,404.4c-0.3,0.2-0.7,0.3-1,0.4C368.6,404.7,368.9,404.6,369.2,404.4z"></path>
		<path id="SvgjsPath1231" class="st136" d="M304.9,404.4c-0.7-0.7-1.3-1.5-1.9-2.2c-0.6-0.7-1.2-1.3-1.7-2c-0.8-1-1.7-1.9-2.5-2.9
			c-0.2-0.2-0.4-0.5-0.6-0.7c-0.7-0.8-1.4-1.6-2.1-2.5c-0.6-0.8-1.3-1.5-1.9-2.3c0,0-0.1-0.1-0.1-0.1c0,0,0,0-0.1-0.1
			c-0.9-1.1-1.8-2.2-2.6-3.2c-0.8-1-1.6-2-2.4-3c-1.9-2.4-3.7-4.7-5.5-7.1l-171.6-58.3c-5.5-1.9-8.4-7.8-6.5-13.3l45.9-135.3
			l27.5-81.1l0,0c-0.2-1.6-0.3-3.1-0.5-4.6c-0.2-2-0.4-4-0.5-5.9c-0.1-0.7-0.1-1.4-0.2-2c0-0.1,0-0.3,0-0.4c0-0.1,0-0.2,0-0.4
			c0-0.5-0.1-1.1-0.1-1.6c-0.1-1.3-0.2-2.5-0.3-3.7c0-0.3,0-0.6-0.1-1c0-0.4-0.1-0.9-0.1-1.3c-0.1-0.9-0.1-1.8-0.2-2.6
			c0-0.6-0.1-1.1-0.1-1.7c0-0.1,0-0.2,0-0.3c-0.1-0.9-0.1-1.8-0.2-2.7c0-0.8-0.1-1.5-0.1-2.3c0-0.2,0-0.5,0-0.7
			c0-0.6-0.1-1.1-0.1-1.6c0-0.8-0.1-1.5-0.1-2.3v-0.1h-16.1L56.7,359.2c-1.9,5.5,1.1,11.4,6.5,13.3l95.5,32.4h146.5
			C305.1,404.7,305,404.6,304.9,404.4z"></path>
		<path id="SvgjsPath1230" class="st135" d="M291.2,388.4c0.9,1.1,1.8,2.2,2.6,3.2c0,0,0,0,0.1,0.1c-1.7-2.1-3.4-4.1-5-6.2
			C289.7,386.5,290.4,387.5,291.2,388.4z"></path>
		<path id="SvgjsPath1229" class="st135" d="M177.5,77.9c0.1,0.7,0.1,1.4,0.2,2c0.2,1.9,0.4,3.9,0.5,5.9c-0.3-2.9-0.5-5.7-0.8-8.3
			C177.4,77.7,177.4,77.8,177.5,77.9z"></path>
		<path id="SvgjsPath1228" class="st135" d="M176.2,60.1c0,0.7,0.1,1.5,0.1,2.3c0,0.9,0.1,1.8,0.2,2.7c0,0.1,0,0.2,0,0.3
			c0,0.5,0.1,1.1,0.1,1.7c0.1,0.9,0.1,1.7,0.2,2.6c-0.3-3.8-0.5-7.2-0.6-10.3C176.2,59.6,176.2,59.8,176.2,60.1z"></path>
		<path id="SvgjsPath1227" class="st135" d="M176,55.5c0,0.7,0.1,1.5,0.1,2.3C176,56.9,176,56.1,176,55.5L176,55.5z"></path>
		<path id="SvgjsPath1226" class="st135" d="M302.9,402.3c0.6,0.7,1.3,1.5,1.9,2.2c-1.2-1.4-2.5-2.8-3.7-4.2
			C301.8,400.9,302.3,401.6,302.9,402.3z"></path>
		<path id="SvgjsPath1225" class="st135" d="M177,71.9c0.1,1.2,0.2,2.4,0.3,3.7c0,0.5,0.1,1.1,0.1,1.6c-0.2-2.2-0.3-4.3-0.5-6.3
			C176.9,71.3,177,71.6,177,71.9z"></path>
		<path id="SvgjsPath1224" class="st135" d="M296,394.2c0.7,0.8,1.4,1.7,2.1,2.5c0.2,0.2,0.4,0.5,0.6,0.7c-1.6-1.8-3.1-3.6-4.6-5.5
			C294.7,392.6,295.3,393.4,296,394.2z"></path>
		<polygon id="SvgjsPolygon1223" class="st135" points="178.6,90.5 178.6,90.5 178.6,90.5 178.6,90.5 		"></polygon>
		<path id="SvgjsPath1222" class="st135" d="M111.7,320.1l171.6,58.3c-16.8-22.1-30.9-45.5-42.9-69.1c-1,1.6-2.5,2.9-4.3,3.8l-8.5,4.2
			l-8.7,4.3c-2.2,1.1-4.8,0.2-5.9-2l-8.5-17.2c-1.3-2.7-1.4-5.6-0.5-8.3c0.9-2.6,2.8-4.9,5.5-6.2c2.2-1.1,4.6-1.4,6.8-0.9
			c0.5,0.1,1,0.2,1.5,0.4c2.6,0.9,4.9,2.8,6.2,5.5c0.5,1,1.6,1.4,2.6,0.9c1.8-0.9,3.8-1.2,5.7-1.1c-14.4-31.2-25.2-62.6-33.2-92
			l-5.5,2.7c-2.2,1.1-4.8,0.2-5.9-2l-8.5-17.2c-1.3-2.7-1.4-5.6-0.5-8.3s2.8-4.9,5.5-6.2c2.2-1.1,4.6-1.4,6.8-0.9
			c0.1,0,0.2,0,0.3,0.1c-6.6-30-10.5-56.9-12.7-78.2l-27.5,81.1l-45.9,135.3C103.3,312.3,106.3,318.2,111.7,320.1z M161.8,225.8
			c0.9-2.6,2.8-4.9,5.5-6.2c2.2-1.1,4.6-1.4,6.8-0.9c0.5,0.1,1,0.2,1.5,0.4c2.6,0.9,4.9,2.8,6.2,5.5c0.5,1,1.6,1.4,2.6,0.9
			c2.7-1.3,5.6-1.4,8.3-0.5s4.9,2.8,6.2,5.5c2.6,5.4,0.4,11.9-4.9,14.5l-8.5,4.2l-8.7,4.3c-2.2,1.1-4.8,0.2-5.9-2l-8.5-17.2
			C161,231.4,160.9,228.4,161.8,225.8z M145.4,274.1c0.9-2.6,2.8-4.9,5.5-6.2c2.2-1.1,4.6-1.4,6.8-0.9c0.5,0.1,1,0.2,1.5,0.4
			c2.6,0.9,4.9,2.8,6.2,5.5c0.5,1,1.6,1.4,2.6,0.9c2.7-1.3,5.6-1.4,8.3-0.5c2.6,0.9,4.9,2.8,6.2,5.5c2.6,5.4,0.4,11.9-4.9,14.5
			l-8.5,4.2l-8.7,4.3c-2.2,1.1-4.8,0.2-5.9-2l-8.5-17.2C144.6,279.7,144.5,276.8,145.4,274.1z"></path>
		<polygon id="SvgjsPolygon1221" class="st135" points="178.6,90.5 151.1,171.5 178.6,90.5 		"></polygon>
		<path id="SvgjsPath1220" class="st135" d="M154.4,299.6c1.1,2.2,3.7,3.1,5.9,2l8.7-4.3l8.5-4.2c5.4-2.6,7.6-9.1,4.9-14.5
			c-1.3-2.7-3.6-4.6-6.2-5.5c-2.6-0.9-5.6-0.8-8.3,0.5c-1,0.5-2.1,0.1-2.6-0.9c-1.3-2.7-3.6-4.6-6.2-5.5c-0.5-0.2-1-0.3-1.5-0.4
			c-2.2-0.4-4.6-0.2-6.8,0.9c-2.7,1.3-4.6,3.6-5.5,6.2c-0.9,2.6-0.8,5.6,0.5,8.3L154.4,299.6z"></path>
		<path id="SvgjsPath1219" class="st135" d="M241.1,298.6c-1.3-2.7-3.6-4.6-6.2-5.5c-0.8-0.3-1.7-0.4-2.5-0.5
			c2.6,5.6,5.3,11.1,8.1,16.7C242.5,306.2,242.9,302.1,241.1,298.6z"></path>
		<path id="SvgjsPath1218" class="st135" d="M226.7,293.7c-1,0.5-2.1,0.1-2.6-0.9c-1.3-2.7-3.6-4.6-6.2-5.5c-0.5-0.2-1-0.3-1.5-0.4
			c-2.2-0.4-4.6-0.2-6.8,0.9c-2.7,1.3-4.6,3.6-5.5,6.2c-0.9,2.6-0.8,5.6,0.5,8.3l8.5,17.2c1.1,2.2,3.7,3.1,5.9,2l8.7-4.3l8.5-4.2
			c1.8-0.9,3.2-2.2,4.3-3.8c-2.8-5.6-5.5-11.1-8.1-16.7C230.5,292.4,228.5,292.7,226.7,293.7z"></path>
		<path id="SvgjsPath1217" class="st135" d="M296,313.9c-2.6-0.9-5.6-0.8-8.3,0.5c-1,0.5-2.1,0.1-2.6-0.9c-1.3-2.7-3.6-4.6-6.2-5.5
			c-0.5-0.2-1-0.3-1.5-0.4c-2.2-0.4-4.6-0.2-6.8,0.9c-2.7,1.3-4.6,3.6-5.5,6.2c-0.9,2.6-0.8,5.6,0.5,8.3l8.5,17.2
			c1.1,2.2,3.7,3.1,5.9,2l8.7-4.3l8.5-4.2c5.4-2.6,7.6-9.1,4.9-14.5C300.9,316.6,298.6,314.7,296,313.9z"></path>
		<path id="SvgjsPath1216" class="st135" d="M355.9,334.2c-2.6-0.9-5.6-0.8-8.3,0.5c-1,0.5-2.1,0.1-2.6-0.9c-1.3-2.7-3.6-4.6-6.2-5.5
			c-0.5-0.2-1-0.3-1.5-0.4c-2.2-0.4-4.6-0.2-6.8,0.9c-2.7,1.3-4.6,3.6-5.5,6.2s-0.8,5.6,0.5,8.3l8.5,17.2c1.1,2.2,3.7,3.1,5.9,2
			l8.7-4.3l8.5-4.2c5.4-2.6,7.6-9.1,4.9-14.5C360.8,337,358.5,335.1,355.9,334.2z"></path>
		<path id="SvgjsPath1215" class="st135" d="M170.8,251.3c1.1,2.2,3.7,3.1,5.9,2l8.7-4.3l8.5-4.2c5.4-2.6,7.6-9.1,4.9-14.5
			c-1.3-2.7-3.6-4.6-6.2-5.5s-5.6-0.8-8.3,0.5c-1,0.5-2.1,0.1-2.6-0.9c-1.3-2.7-3.6-4.6-6.2-5.5c-0.5-0.2-1-0.3-1.5-0.4
			c-2.2-0.4-4.6-0.2-6.8,0.9c-2.7,1.3-4.6,3.6-5.5,6.2c-0.9,2.6-0.8,5.6,0.5,8.3L170.8,251.3z"></path>
		<path id="SvgjsPath1214" class="st135" d="M226,239.5c-2.7,1.3-4.6,3.6-5.5,6.2c-0.9,2.6-0.8,5.6,0.5,8.3l8.5,17.2
			c1.1,2.2,3.7,3.1,5.9,2l8.7-4.3l8.5-4.2c5.4-2.6,7.6-9.1,4.9-14.5c-1.3-2.7-3.6-4.6-6.2-5.5s-5.6-0.8-8.3,0.5
			c-1,0.5-2.1,0.1-2.6-0.9c-1.3-2.7-3.6-4.6-6.2-5.5c-0.5-0.2-1-0.3-1.5-0.4C230.5,238.2,228.2,238.4,226,239.5z"></path>
		<path id="SvgjsPath1213" class="st135" d="M287,260.3c-2.7,1.3-4.6,3.6-5.5,6.2c-0.9,2.6-0.8,5.6,0.5,8.3l8.5,17.2
			c1.1,2.2,3.7,3.1,5.9,2l8.7-4.3l8.5-4.2c5.4-2.6,7.6-9.1,4.9-14.5c-1.3-2.7-3.6-4.6-6.2-5.5s-5.6-0.8-8.3,0.5
			c-1,0.5-2.1,0.1-2.6-0.9c-1.3-2.7-3.6-4.6-6.2-5.5c-0.5-0.2-1-0.3-1.5-0.4C291.6,258.9,289.2,259.2,287,260.3z"></path>
		<path id="SvgjsPath1212" class="st137" d="M346.9,280.6c-2.7,1.3-4.6,3.6-5.5,6.2c-0.9,2.6-0.8,5.6,0.5,8.3l8.5,17.2
			c1.1,2.2,3.7,3.1,5.9,2l8.7-4.3l8.5-4.2c5.4-2.6,7.6-9.1,4.9-14.5c-1.3-2.7-3.6-4.6-6.2-5.5c-2.6-0.9-5.6-0.8-8.3,0.5
			c-1,0.5-2.1,0.1-2.6-0.9c-1.3-2.7-3.6-4.6-6.2-5.5c-0.5-0.2-1-0.3-1.5-0.4C351.5,279.2,349.1,279.5,346.9,280.6z"></path>
		<path id="SvgjsPath1211" class="st135" d="M211,194.8c5.4-2.6,7.6-9.1,4.9-14.5c-1.3-2.7-3.6-4.6-6.2-5.5c-2.6-0.9-5.6-0.8-8.3,0.5
			c-1,0.5-2.1,0.1-2.6-0.9c-1.3-2.7-3.6-4.6-6.2-5.5c-0.4-0.1-0.8-0.2-1.2-0.3c2.3,10.3,4.9,21,7.9,31.9l3.2-1.6L211,194.8z"></path>
		<path id="SvgjsPath1210" class="st135" d="M191.1,168.6c-2.2-0.4-4.6-0.2-6.8,0.9c-2.7,1.3-4.6,3.6-5.5,6.2s-0.8,5.6,0.5,8.3
			l8.5,17.2c1.1,2.2,3.7,3.1,5.9,2l5.5-2.7c-3-10.9-5.6-21.6-7.9-31.9C191.2,168.6,191.2,168.6,191.1,168.6z"></path>
		<path id="SvgjsPath1209" class="st135" d="M246.5,221.2c1.1,2.2,3.7,3.1,5.9,2l8.7-4.3l8.5-4.2c5.4-2.6,7.6-9.1,4.9-14.5
			c-1.3-2.7-3.6-4.6-6.2-5.5s-5.6-0.8-8.3,0.5c-1,0.5-2.1,0.1-2.6-0.9c-1.3-2.7-3.6-4.6-6.2-5.5c-0.5-0.2-1-0.3-1.5-0.4
			c-2.2-0.4-4.6-0.2-6.8,0.9c-2.7,1.3-4.6,3.6-5.5,6.2c-0.9,2.6-0.8,5.6,0.5,8.3L246.5,221.2z"></path>
		<path id="SvgjsPath1208" class="st135" d="M307.6,241.9c1.1,2.2,3.7,3.1,5.9,2l8.7-4.3l8.5-4.2c5.4-2.6,7.6-9.1,4.9-14.5
			c-1.3-2.7-3.6-4.6-6.2-5.5c-2.6-0.9-5.6-0.8-8.3,0.5c-1,0.5-2.1,0.1-2.6-0.9c-1.3-2.7-3.6-4.6-6.2-5.5c-0.5-0.2-1-0.3-1.5-0.4
			c-2.2-0.4-4.6-0.2-6.8,0.9c-2.7,1.3-4.6,3.6-5.5,6.2c-0.9,2.6-0.8,5.6,0.5,8.3L307.6,241.9z"></path>
		<path id="SvgjsPath1207" class="st137" d="M381,236.3c-1,0.5-2.1,0.1-2.6-0.9c-1.3-2.7-3.6-4.6-6.2-5.5c-0.5-0.2-1-0.3-1.5-0.4
			c-2.2-0.4-4.6-0.2-6.8,0.9c-2.7,1.3-4.6,3.6-5.5,6.2c-0.9,2.6-0.8,5.6,0.5,8.3l8.5,17.2c1.1,2.2,3.7,3.1,5.9,2l8.7-4.3l8.5-4.2
			c0.2-0.1,0.5-0.3,0.7-0.4v-18.6c-0.6-0.4-1.3-0.7-2-0.9C386.7,234.9,383.7,235,381,236.3z"></path>
		<path id="SvgjsPath1206" class="st135" d="M204.4,152.5c1.1,2.2,3.7,3.1,5.9,2l8.7-4.3l8.5-4.2c5.4-2.6,7.6-9.1,4.9-14.5
			c-1.3-2.7-3.6-4.6-6.2-5.5s-5.6-0.8-8.3,0.5c-1,0.5-2.1,0.1-2.6-0.9c-1.3-2.7-3.6-4.6-6.2-5.5c-0.5-0.2-1-0.3-1.5-0.4
			c-2.2-0.4-4.6-0.2-6.8,0.9c-2.7,1.3-4.6,3.6-5.5,6.2c-0.9,2.6-0.8,5.6,0.5,8.3L204.4,152.5z"></path>
		<path id="SvgjsPath1205" class="st135" d="M263.1,172.4c1.1,2.2,3.7,3.1,5.9,2l8.7-4.3l8.5-4.2c5.4-2.6,7.6-9.1,4.9-14.5
			c-1.3-2.7-3.6-4.6-6.2-5.5c-2.6-0.9-5.6-0.8-8.3,0.5c-1,0.5-2.1,0.1-2.6-0.9c-1.3-2.7-3.6-4.6-6.2-5.5c-0.5-0.2-1-0.3-1.5-0.4
			c-2.2-0.4-4.6-0.2-6.8,0.9c-2.7,1.3-4.6,3.6-5.5,6.2c-0.9,2.6-0.8,5.6,0.5,8.3L263.1,172.4z"></path>
		<path id="SvgjsPath1204" class="st135" d="M324.2,193.1c1.1,2.2,3.7,3.1,5.9,2l8.7-4.3l8.5-4.2c5.4-2.6,7.6-9.1,4.9-14.5
			c-1.3-2.7-3.6-4.6-6.2-5.5c-2.6-0.9-5.6-0.8-8.3,0.5c-1,0.5-2.1,0.1-2.6-0.9c-1.3-2.7-3.6-4.6-6.2-5.5c-0.5-0.2-1-0.3-1.5-0.4
			c-2.2-0.4-4.6-0.2-6.8,0.9c-2.7,1.3-4.6,3.6-5.5,6.2s-0.8,5.6,0.5,8.3L324.2,193.1z"></path>
		<path id="SvgjsPath1203" class="st137" d="M387.3,180.8c-2.2-0.4-4.6-0.2-6.8,0.9c-2.7,1.3-4.6,3.6-5.5,6.2c-0.9,2.6-0.8,5.6,0.5,8.3
			l8.5,17.2c1.1,2.2,3.7,3.1,5.9,2l1.4-0.7v-32.3c-0.8-0.5-1.7-1-2.6-1.3C388.3,181.1,387.8,180.9,387.3,180.8z"></path>
		<g id="SvgjsG1202">
			<path id="SvgjsPath1201" class="st132" d="M358.5,35.1H36.7c0,0,5.9,17.8,18.6,45.4v-5.5c0-5.8,4.7-10.5,10.5-10.5h263.7
				c5.8,0,10.5,4.7,10.5,10.5v234c0,5.8-4.7,10.5-10.5,10.5H247c35.5,24.1,76.1,43.5,122,54.7V45.5C369,39.7,364.3,35.1,358.5,35.1z
				"></path>
			<path id="SvgjsPath1200" class="st4" d="M247,319.3h82.4c5.8,0,10.5-4.7,10.5-10.5v-234c0-5.8-4.7-10.5-10.5-10.5H65.8
				c-5.8,0-10.5,4.7-10.5,10.5v5.5C83.3,141.3,144.3,249.7,247,319.3z"></path>
			<path id="SvgjsPath1199" class="st133" d="M65.8,319.3c-5.8,0-10.5-4.7-10.5-10.5V80.4C42.6,52.9,36.7,35.1,36.7,35.1
				c-5.8,0-10.5,4.7-10.5,10.5v328.5c0,5.8,4.7,10.5,10.5,10.5h321.9c5.8,0,10.5-4.7,10.5-10.5c-45.9-11.2-86.4-30.6-122-54.7H65.8z
				"></path>
			<path id="SvgjsPath1198" class="st86" d="M65.8,319.3H247C144.3,249.7,83.3,141.3,55.3,80.4v228.4C55.3,314.7,60,319.3,65.8,319.3z"></path>
			<path id="SvgjsPath1197" class="st134" d="M119.4,257.4c-2.1-2.1-4.9-3.2-7.7-3.2s-5.5,1.1-7.7,3.2c-0.8,0.8-2,0.8-2.8,0
				c-2.1-2.1-4.9-3.2-7.7-3.2c-0.5,0-1,0-1.5,0.1c-2.2,0.3-4.4,1.3-6.1,3.1c-2.1,2.1-3.2,4.9-3.2,7.7s1.1,5.5,3.2,7.7l13.6,13.6
				c1.7,1.7,4.5,1.7,6.2,0l6.8-6.8l6.7-6.7C123.7,268.5,123.7,261.6,119.4,257.4z"></path>
			<path id="SvgjsPath1196" class="st134" d="M181.4,257.4c-2.1-2.1-4.9-3.2-7.7-3.2c-2.8,0-5.5,1.1-7.7,3.2c-0.8,0.8-2,0.8-2.8,0
				c-2.1-2.1-4.9-3.2-7.7-3.2c-0.5,0-1,0-1.5,0.1c-2.2,0.3-4.4,1.3-6.1,3.1c-2.1,2.1-3.2,4.9-3.2,7.7s1.1,5.5,3.2,7.7l13.6,13.6
				c1.7,1.7,4.5,1.7,6.2,0l6.8-6.8l6.7-6.7C185.6,268.5,185.6,261.6,181.4,257.4z"></path>
			<path id="SvgjsPath1195" class="st134" d="M245.9,257.4c-2.1-2.1-4.9-3.2-7.7-3.2c-2.8,0-5.5,1.1-7.7,3.2c-0.8,0.8-2,0.8-2.8,0
				c-2.1-2.1-4.9-3.2-7.7-3.2c-0.5,0-1,0-1.5,0.1c-2.2,0.3-4.4,1.3-6.1,3.1c-2.1,2.1-3.2,4.9-3.2,7.7s1.1,5.5,3.2,7.7l13.6,13.6
				c1.7,1.7,4.5,1.7,6.2,0l6.8-6.8l6.7-6.7C250.1,268.5,250.1,261.6,245.9,257.4z"></path>
			<path id="SvgjsPath1194" class="st134" d="M309.2,257.4c-2.1-2.1-4.9-3.2-7.7-3.2s-5.5,1.1-7.7,3.2c-0.8,0.8-2,0.8-2.8,0
				c-2.1-2.1-4.9-3.2-7.7-3.2c-0.5,0-1,0-1.5,0.1c-2.2,0.3-4.4,1.3-6.1,3.1c-2.1,2.1-3.2,4.9-3.2,7.7s1.1,5.5,3.2,7.7l13.6,13.6
				c1.7,1.7,4.5,1.7,6.2,0l6.8-6.8l6.7-6.7C313.4,268.5,313.4,261.6,309.2,257.4z"></path>
			<path id="SvgjsPath1193" class="st134" d="M119.4,206.3c-2.1-2.1-4.9-3.2-7.7-3.2s-5.5,1.1-7.7,3.2c-0.8,0.8-2,0.8-2.8,0
				c-2.1-2.1-4.9-3.2-7.7-3.2c-0.5,0-1,0-1.5,0.1c-2.2,0.3-4.4,1.3-6.1,3.1c-2.1,2.1-3.2,4.9-3.2,7.7c0,2.8,1.1,5.5,3.2,7.7
				l13.6,13.6c1.7,1.7,4.5,1.7,6.2,0l6.8-6.8l6.7-6.7C123.7,217.4,123.7,210.6,119.4,206.3z"></path>
			<path id="SvgjsPath1192" class="st134" d="M181.4,206.3c-2.1-2.1-4.9-3.2-7.7-3.2c-2.8,0-5.5,1.1-7.7,3.2c-0.8,0.8-2,0.8-2.8,0
				c-2.1-2.1-4.9-3.2-7.7-3.2c-0.5,0-1,0-1.5,0.1c-2.2,0.3-4.4,1.3-6.1,3.1c-2.1,2.1-3.2,4.9-3.2,7.7c0,2.8,1.1,5.5,3.2,7.7
				l13.6,13.6c1.7,1.7,4.5,1.7,6.2,0l6.8-6.8l6.7-6.7C185.6,217.4,185.6,210.6,181.4,206.3z"></path>
			<path id="SvgjsPath1191" class="st134" d="M245.9,206.3c-2.1-2.1-4.9-3.2-7.7-3.2c-2.8,0-5.5,1.1-7.7,3.2c-0.8,0.8-2,0.8-2.8,0
				c-2.1-2.1-4.9-3.2-7.7-3.2c-0.5,0-1,0-1.5,0.1c-2.2,0.3-4.4,1.3-6.1,3.1c-2.1,2.1-3.2,4.9-3.2,7.7c0,2.8,1.1,5.5,3.2,7.7
				l13.6,13.6c1.7,1.7,4.5,1.7,6.2,0l6.8-6.8l6.7-6.7C250.1,217.4,250.1,210.6,245.9,206.3z"></path>
			<path id="SvgjsPath1190" class="st134" d="M309.2,206.3c-2.1-2.1-4.9-3.2-7.7-3.2s-5.5,1.1-7.7,3.2c-0.8,0.8-2,0.8-2.8,0
				c-2.1-2.1-4.9-3.2-7.7-3.2c-0.5,0-1,0-1.5,0.1c-2.2,0.3-4.4,1.3-6.1,3.1c-2.1,2.1-3.2,4.9-3.2,7.7c0,2.8,1.1,5.5,3.2,7.7
				l13.6,13.6c1.7,1.7,4.5,1.7,6.2,0l6.8-6.8l6.7-6.7C313.4,217.4,313.4,210.6,309.2,206.3z"></path>
			<path id="SvgjsPath1189" class="st134" d="M119.4,153.5c-2.1-2.1-4.9-3.2-7.7-3.2s-5.5,1.1-7.7,3.2c-0.8,0.8-2,0.8-2.8,0
				c-2.1-2.1-4.9-3.2-7.7-3.2c-0.5,0-1,0-1.5,0.1c-2.2,0.3-4.4,1.3-6.1,3.1c-2.1,2.1-3.2,4.9-3.2,7.7c0,2.8,1.1,5.5,3.2,7.7
				l13.6,13.6c1.7,1.7,4.5,1.7,6.2,0l6.8-6.8l6.7-6.7C123.7,164.5,123.7,157.7,119.4,153.5z"></path>
			<path id="SvgjsPath1188" class="st134" d="M181.4,153.5c-2.1-2.1-4.9-3.2-7.7-3.2c-2.8,0-5.5,1.1-7.7,3.2c-0.8,0.8-2,0.8-2.8,0
				c-2.1-2.1-4.9-3.2-7.7-3.2c-0.5,0-1,0-1.5,0.1c-2.2,0.3-4.4,1.3-6.1,3.1c-2.1,2.1-3.2,4.9-3.2,7.7c0,2.8,1.1,5.5,3.2,7.7
				l13.6,13.6c1.7,1.7,4.5,1.7,6.2,0l6.8-6.8l6.7-6.7C185.6,164.5,185.6,157.7,181.4,153.5z"></path>
			<path id="SvgjsPath1187" class="st134" d="M245.9,153.5c-2.1-2.1-4.9-3.2-7.7-3.2c-2.8,0-5.5,1.1-7.7,3.2c-0.8,0.8-2,0.8-2.8,0
				c-2.1-2.1-4.9-3.2-7.7-3.2c-0.5,0-1,0-1.5,0.1c-2.2,0.3-4.4,1.3-6.1,3.1c-2.1,2.1-3.2,4.9-3.2,7.7c0,2.8,1.1,5.5,3.2,7.7
				l13.6,13.6c1.7,1.7,4.5,1.7,6.2,0l6.8-6.8l6.7-6.7C250.1,164.5,250.1,157.7,245.9,153.5z"></path>
			<path id="SvgjsPath1186" class="st134" d="M309.2,153.5c-2.1-2.1-4.9-3.2-7.7-3.2s-5.5,1.1-7.7,3.2c-0.8,0.8-2,0.8-2.8,0
				c-2.1-2.1-4.9-3.2-7.7-3.2c-0.5,0-1,0-1.5,0.1c-2.2,0.3-4.4,1.3-6.1,3.1c-2.1,2.1-3.2,4.9-3.2,7.7c0,2.8,1.1,5.5,3.2,7.7
				l13.6,13.6c1.7,1.7,4.5,1.7,6.2,0l6.8-6.8l6.7-6.7C313.4,164.5,313.4,157.7,309.2,153.5z"></path>
			<path id="SvgjsPath1185" class="st134" d="M119.4,102c-2.1-2.1-4.9-3.2-7.7-3.2s-5.5,1.1-7.7,3.2c-0.8,0.8-2,0.8-2.8,0
				c-2.1-2.1-4.9-3.2-7.7-3.2c-0.5,0-1,0-1.5,0.1c-2.2,0.3-4.4,1.3-6.1,3.1c-2.1,2.1-3.2,4.9-3.2,7.7c0,2.8,1.1,5.5,3.2,7.7
				l13.6,13.6c1.7,1.7,4.5,1.7,6.2,0l6.8-6.8l6.7-6.7C123.7,113,123.7,106.2,119.4,102z"></path>
			<path id="SvgjsPath1184" class="st134" d="M181.4,102c-2.1-2.1-4.9-3.2-7.7-3.2c-2.8,0-5.5,1.1-7.7,3.2c-0.8,0.8-2,0.8-2.8,0
				c-2.1-2.1-4.9-3.2-7.7-3.2c-0.5,0-1,0-1.5,0.1c-2.2,0.3-4.4,1.3-6.1,3.1c-2.1,2.1-3.2,4.9-3.2,7.7c0,2.8,1.1,5.5,3.2,7.7
				l13.6,13.6c1.7,1.7,4.5,1.7,6.2,0l6.8-6.8l6.7-6.7C185.6,113,185.6,106.2,181.4,102z"></path>
			<path id="SvgjsPath1183" class="st134" d="M245.9,102c-2.1-2.1-4.9-3.2-7.7-3.2c-2.8,0-5.5,1.1-7.7,3.2c-0.8,0.8-2,0.8-2.8,0
				c-2.1-2.1-4.9-3.2-7.7-3.2c-0.5,0-1,0-1.5,0.1c-2.2,0.3-4.4,1.3-6.1,3.1c-2.1,2.1-3.2,4.9-3.2,7.7c0,2.8,1.1,5.5,3.2,7.7
				l13.6,13.6c1.7,1.7,4.5,1.7,6.2,0l6.8-6.8l6.7-6.7C250.1,113,250.1,106.2,245.9,102z"></path>
			<path id="SvgjsPath1182" class="st134" d="M309.2,102c-2.1-2.1-4.9-3.2-7.7-3.2s-5.5,1.1-7.7,3.2c-0.8,0.8-2,0.8-2.8,0
				c-2.1-2.1-4.9-3.2-7.7-3.2c-0.5,0-1,0-1.5,0.1c-2.2,0.3-4.4,1.3-6.1,3.1c-2.1,2.1-3.2,4.9-3.2,7.7c0,2.8,1.1,5.5,3.2,7.7
				l13.6,13.6c1.7,1.7,4.5,1.7,6.2,0l6.8-6.8l6.7-6.7C313.4,113,313.4,106.2,309.2,102z"></path>
			<g id="SvgjsG1181">
				<path id="SvgjsPath1180" class="st31" d="M260,144.2l-25,25l-25.5,25.5c-6.4,6.4-16.7,6.4-23.1,0l-50.5-50.5
					c-7.9-7.9-11.8-18.2-11.8-28.5c0-10.3,3.9-20.6,11.8-28.5c6.4-6.4,14.5-10.2,22.8-11.4c1.9-0.3,3.8-0.4,5.7-0.4
					c10.3,0,20.6,3.9,28.5,11.8c2.8,2.8,7.4,2.8,10.2,0c7.9-7.9,18.2-11.8,28.5-11.8c10.3,0,20.6,3.9,28.5,11.8
					C275.7,103,275.7,128.5,260,144.2z"></path>
				<path id="SvgjsPath1179" class="st90" d="M260,144.2l-25,25l-25.5,25.5c-6.4,6.4-16.7,6.4-23.1,0l-50.5-50.5
					c-7.9-7.9-11.8-18.2-11.8-28.5c0-10.3,3.9-20.6,11.8-28.5c6.4-6.4,14.5-10.2,22.8-11.4C158.7,75.9,191.6,139.7,260,144.2z"></path>
				<path id="SvgjsPath1178" class="st32" d="M235,169.2l-25.5,25.5c-6.4,6.4-16.7,6.4-23.1,0l-50.5-50.5c-7.9-7.9-11.8-18.2-11.8-28.5
					c0-10.3,3.9-20.6,11.8-28.5c6.4-6.4,14.5-10.2,22.8-11.4v0C158.7,75.9,149.5,151.5,235,169.2z"></path>
				
					<ellipse id="SvgjsEllipse1177" transform="matrix(0.7741 -0.6331 0.6331 0.7741 -4.3172 177.5997)" class="st33" cx="246.7" cy="94.8" rx="10.6" ry="13.2"></ellipse>
				
					<ellipse id="SvgjsEllipse1176" transform="matrix(0.7741 -0.6331 0.6331 0.7741 -12.3535 189.9646)" class="st33" cx="260" cy="112.3" rx="4.4" ry="5.5"></ellipse>
			</g>
			<g id="SvgjsG1175">
				<path id="SvgjsPath1174" class="st31" d="M292.1,246.1L277.2,261L262,276.2c-3.8,3.8-10,3.8-13.8,0l-30.1-30.1
					c-4.7-4.7-7-10.8-7-17s2.3-12.3,7-17c3.8-3.8,8.6-6.1,13.6-6.8c1.1-0.2,2.2-0.2,3.4-0.2c6.1,0,12.3,2.3,17,7
					c1.7,1.7,4.4,1.7,6.1,0c4.7-4.7,10.8-7,17-7c6.1,0,12.3,2.3,17,7C301.5,221.5,301.5,236.7,292.1,246.1z"></path>
				<path id="SvgjsPath1173" class="st90" d="M292.1,246.1L277.2,261L262,276.2c-3.8,3.8-10,3.8-13.8,0l-30.1-30.1
					c-4.7-4.7-7-10.8-7-17s2.3-12.3,7-17c3.8-3.8,8.6-6.1,13.6-6.8C231.7,205.3,251.3,243.4,292.1,246.1z"></path>
				<path id="SvgjsPath1172" class="st32" d="M277.2,261L262,276.2c-3.8,3.8-10,3.8-13.8,0l-30.1-30.1c-4.7-4.7-7-10.8-7-17
					s2.3-12.3,7-17c3.8-3.8,8.6-6.1,13.6-6.8v0C231.7,205.3,226.2,250.4,277.2,261z"></path>
				
					<ellipse id="SvgjsEllipse1171" transform="matrix(0.7741 -0.6331 0.6331 0.7741 -72.9679 228.8401)" class="st33" cx="284.2" cy="216.7" rx="6.3" ry="7.9"></ellipse>
				
					<ellipse id="SvgjsEllipse1170" transform="matrix(0.7741 -0.6331 0.6331 0.7741 -77.7587 236.2116)" class="st33" cx="292.1" cy="227.1" rx="2.6" ry="3.3"></ellipse>
			</g>
			<g id="SvgjsG1169">
				<path id="SvgjsPath1168" class="st31" d="M173,281.1l-11.4,11.4L150.1,304c-2.9,2.9-7.6,2.9-10.5,0l-22.9-22.9
					c-3.6-3.6-5.4-8.2-5.4-12.9s1.8-9.4,5.4-12.9c2.9-2.9,6.6-4.6,10.4-5.2c0.9-0.1,1.7-0.2,2.6-0.2c4.7,0,9.4,1.8,12.9,5.4
					c1.3,1.3,3.4,1.3,4.7,0c3.6-3.6,8.2-5.4,12.9-5.4c4.7,0,9.4,1.8,12.9,5.4C180.1,262.4,180.1,274,173,281.1z"></path>
				<path id="SvgjsPath1167" class="st90" d="M173,281.1l-11.4,11.4L150.1,304c-2.9,2.9-7.6,2.9-10.5,0l-22.9-22.9
					c-3.6-3.6-5.4-8.2-5.4-12.9s1.8-9.4,5.4-12.9c2.9-2.9,6.6-4.6,10.4-5.2C127,250.1,141.9,279.1,173,281.1z"></path>
				<path id="SvgjsPath1166" class="st32" d="M161.6,292.5L150.1,304c-2.9,2.9-7.6,2.9-10.5,0l-22.9-22.9c-3.6-3.6-5.4-8.2-5.4-12.9
					s1.8-9.4,5.4-12.9c2.9-2.9,6.6-4.6,10.4-5.2v0C127,250.1,122.9,284.4,161.6,292.5z"></path>
				
					<ellipse id="SvgjsEllipse1165" transform="matrix(0.7741 -0.6331 0.6331 0.7741 -126.07 164.1467)" class="st33" cx="167" cy="258.7" rx="4.8" ry="6"></ellipse>
				
					<ellipse id="SvgjsEllipse1164" transform="matrix(0.7741 -0.6331 0.6331 0.7741 -129.717 169.7582)" class="st33" cx="173" cy="266.6" rx="2" ry="2.5"></ellipse>
			</g>
		</g>
	</g>
</g>
</svg><style>@media (prefers-color-scheme: light) { :root { filter: none; } }
@media (prefers-color-scheme: dark) { :root { filter: none; } }
</style></svg>